<svg version="1.1" id="Layer_1" xmlns="http://www.w3.org/2000/svg" xmlns:xlink="http://www.w3.org/1999/xlink" x="0px" y="0px"
	 width="100%" viewBox="0 0 641 600" enable-background="new 0 0 641 600" xml:space="preserve">
<path fill="#000000" opacity="1.000000" stroke="none" 
	d="
M393.000000,601.000000 
	C262.000031,601.000000 131.500046,601.000000 1.000053,601.000000 
	C1.000035,401.000061 1.000035,201.000122 1.000018,1.000133 
	C214.666565,1.000089 428.333130,1.000089 641.999756,1.000044 
	C641.999878,200.999863 641.999878,400.999725 641.999939,600.999756 
	C559.166687,601.000000 476.333344,601.000000 393.000000,601.000000 
M370.329742,31.032032 
	C366.564484,29.681021 362.843445,28.187563 359.026367,27.003611 
	C342.290741,21.812666 325.269409,18.830259 307.679565,21.019419 
	C299.461121,22.042250 291.106873,22.612274 283.097504,24.555395 
	C259.841614,30.197416 239.215668,41.285477 221.426361,57.217155 
	C205.497910,71.482323 193.078232,88.478981 184.376999,108.133171 
	C172.756760,134.380722 167.996918,161.650330 170.913666,190.319565 
	C172.361053,204.546082 174.973953,218.500122 180.160736,231.747818 
	C184.581909,243.040009 189.054840,254.647339 195.704285,264.653687 
	C205.858963,279.934875 218.028763,293.723663 232.088867,305.908203 
	C244.459747,316.628815 255.188217,328.924011 263.421417,343.511383 
	C273.552673,361.461700 279.380493,380.579742 280.688721,400.794281 
	C281.419617,412.087769 279.954041,423.769928 277.788208,434.949554 
	C274.060974,454.188873 265.617798,471.663055 252.773346,486.504822 
	C241.391617,499.656372 227.913818,510.233368 211.586182,517.192139 
	C190.839081,526.034546 169.709702,528.695801 147.801132,523.313721 
	C128.147446,518.485596 111.441689,508.785278 98.341484,492.957001 
	C86.594139,478.763214 79.667213,462.582306 79.323685,444.380615 
	C79.147667,435.054657 81.126236,425.234070 84.267494,416.396393 
	C90.333008,399.331512 102.042175,386.623108 119.388405,380.359711 
	C137.823303,373.703278 154.977249,375.906494 169.036316,390.661560 
	C177.821396,399.881592 180.707153,416.095306 172.134109,424.614136 
	C165.888474,430.820221 158.699158,431.855530 154.139359,425.491882 
	C148.732803,417.946503 138.287857,418.088165 133.010513,425.829071 
	C124.471779,438.353790 129.317078,454.914917 139.839981,463.872437 
	C150.095917,472.602753 162.106308,475.812469 175.851318,474.173187 
	C192.813568,472.150238 205.974060,463.864105 215.521957,450.620209 
	C229.287292,431.526184 232.431793,409.897369 225.904068,387.293762 
	C219.714996,365.862762 206.841080,349.377502 187.564102,337.834045 
	C176.353180,331.120819 164.628281,326.462646 151.547089,324.899048 
	C138.202469,323.303955 124.979866,323.267975 111.959335,326.570251 
	C86.639656,332.991821 65.821762,346.404907 50.060871,367.424866 
	C29.454546,394.907043 22.058496,425.947693 26.166281,459.666656 
	C28.235355,476.650818 33.561565,492.949005 42.435181,507.704285 
	C47.897747,516.787598 54.000019,525.578674 60.667007,533.810974 
	C64.750359,538.852966 70.129364,543.038696 75.487000,546.813354 
	C84.960045,553.487427 94.339180,560.640991 104.706154,565.618042 
	C119.792336,572.860779 135.765198,578.425232 152.807907,578.937744 
	C166.461456,579.348145 180.331863,580.438660 193.758179,578.636169 
	C213.207550,576.025208 231.695496,569.515442 249.009460,559.665833 
	C267.298462,549.261475 283.131104,536.045776 296.339661,519.918213 
	C306.436707,507.589813 315.261017,494.120544 320.842773,479.070709 
	C325.235321,467.227295 328.902893,455.040009 331.849091,442.755219 
	C335.116486,429.131042 338.342804,415.514465 344.626740,402.973206 
	C354.318817,383.630157 367.691010,367.288300 385.164124,354.204132 
	C407.028564,337.831696 431.690460,330.077423 458.646179,329.129791 
	C464.779358,328.914154 470.995911,330.151855 477.128906,331.034698 
	C491.462585,333.098114 505.004486,337.584076 517.101990,345.657959 
	C526.505554,351.933868 535.356812,358.529297 542.848083,367.586182 
	C550.267212,376.555847 556.346619,385.830383 560.731506,396.387634 
	C567.759033,413.307251 569.539917,431.033569 565.787659,448.773590 
	C561.595886,468.591675 552.040283,485.734680 535.369324,498.102264 
	C512.434082,515.117065 487.892731,518.793701 462.071533,505.443085 
	C443.001801,495.583313 429.282196,471.658417 438.959991,448.308380 
	C442.445038,439.899811 454.216919,428.703094 466.622528,431.984314 
	C474.803864,434.148163 478.209076,440.713898 474.922455,448.434814 
	C472.488342,454.152863 474.502319,459.775543 480.052032,463.029816 
	C488.764038,468.138458 502.953278,463.792999 509.013885,455.010651 
	C514.892700,446.491821 517.327942,437.397888 516.194580,426.860992 
	C515.177734,417.406677 511.551514,409.368866 505.740295,402.385895 
	C489.326416,382.662445 463.812927,377.113251 440.284515,383.929565 
	C412.926270,391.855408 396.379150,410.606140 387.025635,436.613800 
	C382.909698,448.058167 381.810120,460.110535 383.246063,471.968933 
	C384.551788,482.752045 386.448395,493.934052 390.751343,503.774048 
	C397.284454,518.714050 407.399902,531.467834 420.320526,542.041992 
	C438.178925,556.657227 458.655914,564.584290 481.192444,566.799805 
	C497.704803,568.423096 514.213684,566.675537 530.162598,561.404114 
	C564.891663,549.925415 590.448730,527.398438 606.764954,495.121246 
	C618.787476,471.337738 623.923645,445.767090 621.166016,418.763733 
	C619.808228,405.467773 617.408142,392.542084 612.936646,380.023102 
	C606.243347,361.283600 596.267517,344.367889 582.973816,329.580231 
	C565.854065,310.536530 545.354980,296.185913 521.433655,286.843903 
	C503.349396,279.781372 484.651581,275.498016 465.216888,275.082886 
	C457.310150,274.913971 449.287170,275.008392 441.488892,276.153290 
	C429.702057,277.883820 417.804169,279.759735 406.420898,283.145416 
	C384.234741,289.744049 362.313416,295.975128 338.620911,293.214111 
	C323.515411,291.453766 309.040131,287.934753 295.437073,281.611938 
	C277.595306,273.318909 262.312042,261.543182 250.092957,245.746490 
	C232.536407,223.049576 223.369370,197.936569 224.889252,168.994385 
	C225.491898,157.518997 227.716782,146.621704 231.935318,135.971298 
	C241.012192,113.055244 256.033142,95.348404 277.987244,84.099411 
	C295.433472,75.160210 314.125031,72.173935 333.487122,76.083244 
	C348.196747,79.053207 361.356995,85.681557 371.793182,96.510765 
	C381.594879,106.681557 387.940796,118.612656 390.295685,133.114136 
	C393.430298,152.417328 384.941528,173.169205 368.774323,183.557236 
	C355.436951,192.126984 337.850861,191.121841 329.061981,180.523209 
	C325.341064,176.036102 322.642151,171.213654 325.012115,165.088013 
	C327.043243,159.838165 330.812836,158.081390 336.425720,157.662949 
	C339.084290,157.464752 342.561859,154.237946 343.798065,151.529572 
	C347.973053,142.382782 341.523376,130.929565 330.567352,127.065186 
	C315.564056,121.773277 302.105865,125.779694 291.278625,136.502533 
	C278.520264,149.137878 274.146118,164.917816 276.911621,182.889282 
	C280.271606,204.723862 292.236053,221.080856 310.663513,231.456467 
	C327.647369,241.019257 346.547333,244.184250 366.534271,240.182343 
	C396.901672,234.101974 418.619873,216.813599 432.773651,190.201218 
	C443.839478,169.394836 446.990387,146.894592 443.164673,123.257462 
	C439.608368,101.284721 430.873199,81.922264 416.550415,65.221695 
	C404.010468,50.599930 388.966614,38.954868 370.329742,31.032032 
z"/>
<path fill="#FFFFFF" opacity="1.000000" stroke="none" 
	d="
M370.657532,31.256432 
	C388.966614,38.954868 404.010468,50.599930 416.550415,65.221695 
	C430.873199,81.922264 439.608368,101.284721 443.164673,123.257462 
	C446.990387,146.894592 443.839478,169.394836 432.773651,190.201218 
	C418.619873,216.813599 396.901672,234.101974 366.534271,240.182343 
	C346.547333,244.184250 327.647369,241.019257 310.663513,231.456467 
	C292.236053,221.080856 280.271606,204.723862 276.911621,182.889282 
	C274.146118,164.917816 278.520264,149.137878 291.278625,136.502533 
	C302.105865,125.779694 315.564056,121.773277 330.567352,127.065186 
	C341.523376,130.929565 347.973053,142.382782 343.798065,151.529572 
	C342.561859,154.237946 339.084290,157.464752 336.425720,157.662949 
	C330.812836,158.081390 327.043243,159.838165 325.012115,165.088013 
	C322.642151,171.213654 325.341064,176.036102 329.061981,180.523209 
	C337.850861,191.121841 355.436951,192.126984 368.774323,183.557236 
	C384.941528,173.169205 393.430298,152.417328 390.295685,133.114136 
	C387.940796,118.612656 381.594879,106.681557 371.793182,96.510765 
	C361.356995,85.681557 348.196747,79.053207 333.487122,76.083244 
	C314.125031,72.173935 295.433472,75.160210 277.987244,84.099411 
	C256.033142,95.348404 241.012192,113.055244 231.935318,135.971298 
	C227.716782,146.621704 225.491898,157.518997 224.889252,168.994385 
	C223.369370,197.936569 232.536407,223.049576 250.092957,245.746490 
	C262.312042,261.543182 277.595306,273.318909 295.437073,281.611938 
	C309.040131,287.934753 323.515411,291.453766 338.620911,293.214111 
	C362.313416,295.975128 384.234741,289.744049 406.420898,283.145416 
	C417.804169,279.759735 429.702057,277.883820 441.488892,276.153290 
	C449.287170,275.008392 457.310150,274.913971 465.216888,275.082886 
	C484.651581,275.498016 503.349396,279.781372 521.433655,286.843903 
	C545.354980,296.185913 565.854065,310.536530 582.973816,329.580231 
	C596.267517,344.367889 606.243347,361.283600 612.936646,380.023102 
	C617.408142,392.542084 619.808228,405.467773 621.166016,418.763733 
	C623.923645,445.767090 618.787476,471.337738 606.764954,495.121246 
	C590.448730,527.398438 564.891663,549.925415 530.162598,561.404114 
	C514.213684,566.675537 497.704803,568.423096 481.192444,566.799805 
	C458.655914,564.584290 438.178925,556.657227 420.320526,542.041992 
	C407.399902,531.467834 397.284454,518.714050 390.751343,503.774048 
	C386.448395,493.934052 384.551788,482.752045 383.246063,471.968933 
	C381.810120,460.110535 382.909698,448.058167 387.025635,436.613800 
	C396.379150,410.606140 412.926270,391.855408 440.284515,383.929565 
	C463.812927,377.113251 489.326416,382.662445 505.740295,402.385895 
	C511.551514,409.368866 515.177734,417.406677 516.194580,426.860992 
	C517.327942,437.397888 514.892700,446.491821 509.013885,455.010651 
	C502.953278,463.792999 488.764038,468.138458 480.052032,463.029816 
	C474.502319,459.775543 472.488342,454.152863 474.922455,448.434814 
	C478.209076,440.713898 474.803864,434.148163 466.622528,431.984314 
	C454.216919,428.703094 442.445038,439.899811 438.959991,448.308380 
	C429.282196,471.658417 443.001801,495.583313 462.071533,505.443085 
	C487.892731,518.793701 512.434082,515.117065 535.369324,498.102264 
	C552.040283,485.734680 561.595886,468.591675 565.787659,448.773590 
	C569.539917,431.033569 567.759033,413.307251 560.731506,396.387634 
	C556.346619,385.830383 550.267212,376.555847 542.848083,367.586182 
	C535.356812,358.529297 526.505554,351.933868 517.101990,345.657959 
	C505.004486,337.584076 491.462585,333.098114 477.128906,331.034698 
	C470.995911,330.151855 464.779358,328.914154 458.646179,329.129791 
	C431.690460,330.077423 407.028564,337.831696 385.164124,354.204132 
	C367.691010,367.288300 354.318817,383.630157 344.626740,402.973206 
	C338.342804,415.514465 335.116486,429.131042 331.849091,442.755219 
	C328.902893,455.040009 325.235321,467.227295 320.842773,479.070709 
	C315.261017,494.120544 306.436707,507.589813 296.339661,519.918213 
	C283.131104,536.045776 267.298462,549.261475 249.009460,559.665833 
	C231.695496,569.515442 213.207550,576.025208 193.758179,578.636169 
	C180.331863,580.438660 166.461456,579.348145 152.807907,578.937744 
	C135.765198,578.425232 119.792336,572.860779 104.706154,565.618042 
	C94.339180,560.640991 84.960045,553.487427 75.487000,546.813354 
	C70.129364,543.038696 64.750359,538.852966 60.667007,533.810974 
	C54.000019,525.578674 47.897747,516.787598 42.435181,507.704285 
	C33.561565,492.949005 28.235355,476.650818 26.166281,459.666656 
	C22.058496,425.947693 29.454546,394.907043 50.060871,367.424866 
	C65.821762,346.404907 86.639656,332.991821 111.959335,326.570251 
	C124.979866,323.267975 138.202469,323.303955 151.547089,324.899048 
	C164.628281,326.462646 176.353180,331.120819 187.564102,337.834045 
	C206.841080,349.377502 219.714996,365.862762 225.904068,387.293762 
	C232.431793,409.897369 229.287292,431.526184 215.521957,450.620209 
	C205.974060,463.864105 192.813568,472.150238 175.851318,474.173187 
	C162.106308,475.812469 150.095917,472.602753 139.839981,463.872437 
	C129.317078,454.914917 124.471779,438.353790 133.010513,425.829071 
	C138.287857,418.088165 148.732803,417.946503 154.139359,425.491882 
	C158.699158,431.855530 165.888474,430.820221 172.134109,424.614136 
	C180.707153,416.095306 177.821396,399.881592 169.036316,390.661560 
	C154.977249,375.906494 137.823303,373.703278 119.388405,380.359711 
	C102.042175,386.623108 90.333008,399.331512 84.267494,416.396393 
	C81.126236,425.234070 79.147667,435.054657 79.323685,444.380615 
	C79.667213,462.582306 86.594139,478.763214 98.341484,492.957001 
	C111.441689,508.785278 128.147446,518.485596 147.801132,523.313721 
	C169.709702,528.695801 190.839081,526.034546 211.586182,517.192139 
	C227.913818,510.233368 241.391617,499.656372 252.773346,486.504822 
	C265.617798,471.663055 274.060974,454.188873 277.788208,434.949554 
	C279.954041,423.769928 281.419617,412.087769 280.688721,400.794281 
	C279.380493,380.579742 273.552673,361.461700 263.421417,343.511383 
	C255.188217,328.924011 244.459747,316.628815 232.088867,305.908203 
	C218.028763,293.723663 205.858963,279.934875 195.704285,264.653687 
	C189.054840,254.647339 184.581909,243.040009 180.160736,231.747818 
	C174.973953,218.500122 172.361053,204.546082 170.913666,190.319565 
	C167.996918,161.650330 172.756760,134.380722 184.376999,108.133171 
	C193.078232,88.478981 205.497910,71.482323 221.426361,57.217155 
	C239.215668,41.285477 259.841614,30.197416 283.097504,24.555395 
	C291.106873,22.612274 299.461121,22.042250 307.679565,21.019419 
	C325.269409,18.830259 342.290741,21.812666 359.026367,27.003611 
	C362.843445,28.187563 366.564484,29.681021 370.657532,31.256432 
z"/>
</svg>